<svg xmlns="http://www.w3.org/2000/svg" viewBox="0 0 540.07 760.04"><defs><linearGradient id="linear-gradient" x1=".18" y1="386.14" x2="540.2" y2="386.14" gradientTransform="matrix(1 0 0 -1 -.51 834.61)" gradientUnits="userSpaceOnUse"><stop offset="0" stop-color="#c3f6ee"/><stop offset=".38" stop-color="#c6ebfd"/></linearGradient><style>.cls-5{opacity:.4}.cls-12,.cls-7,.cls-9{isolation:isolate}.cls-2{fill:#ecf2fa}.cls-3{fill:#8bbacc}.cls-4,.cls-7{fill:#274b5b}.cls-6{fill:#426270}.cls-7{opacity:.2}.cls-12,.cls-8,.cls-9{fill:#fff}.cls-9{opacity:.7}.cls-10{fill:#d3dfed}.cls-11{fill:#75d9ef}.cls-12{opacity:.9}</style></defs><g id="Layer_2" data-name="Layer 2"><g id="Layer_1-2" data-name="Layer 1"><g id="Layer_2-2" data-name="Layer 2"><g id="Layer_1-2-2" data-name="Layer 1-2"><path class="cls-2" d="M103.39 606.23L24.11 736.9a9 9 0 006.68 13.66l52.55 6.15 56.45-56.33-34.37-94.16"/><path class="cls-3" d="M30.13 758.68l48.68.06 56.46-56.33-5.6-15.34-56.93 59.08-51.52-.05 8.91 12.58z"/><path class="cls-4" d="M76.28 759.65h-40.5A16.89 16.89 0 0121.34 734l78.25-129.3a2.94 2.94 0 013.53-1.24 2.94 2.94 0 013.77 1.75l35 95.93-53.66 53.57a16.78 16.78 0 01-11.95 4.94zm26.44-148.75L26.39 737a11 11 0 009.41 16.71h40.5a10.94 10.94 0 007.79-3.22l51-50.92z"/><g class="cls-5"><path class="cls-6" d="M54.08 705.85c2.62-4.24 4.45-7.83 4.67-7.73s-1.31 3.89-4 8.16-5.34 7.36-5.51 7.21 2.24-3.4 4.84-7.64z"/><ellipse class="cls-6" cx="57.7" cy="708.22" rx="6" ry=".42" transform="rotate(-59.5 57.673 708.172)"/><path class="cls-6" d="M55 708.7c3.82 1.55 7 2.57 7 2.8s-3.39-.45-7.27-2-6.75-3.4-6.64-3.6 3.07 1.27 6.91 2.8zM58.58 707.67c3.45 1.62 6.4 2.62 6.33 2.85s-3.16-.43-6.68-2.09-6-3.6-5.89-3.78 2.78 1.42 6.24 3.02z"/></g><path class="cls-4" transform="rotate(-56.09 85.13 702.947)" d="M20.79 702.35h128.75v1.31H20.79z"/><path class="cls-7" transform="rotate(-56.09 83.787 702.052)" d="M19.44 701.44h128.75v1.31H19.44z"/><path class="cls-7" transform="rotate(-56.09 86.476 703.857)" d="M22.14 703.25h128.75v1.31H22.14z"/><path class="cls-4" transform="rotate(-56.09 92.317 702.957)" d="M27.98 702.35h128.75v1.31H27.98z"/><path class="cls-7" transform="rotate(-56.09 90.966 702.056)" d="M26.63 701.45h128.75v1.31H26.63z"/><path class="cls-7" transform="rotate(-56.09 93.664 703.867)" d="M29.32 703.26h128.75v1.31H29.32z"/><path class="cls-2" d="M359.23 606.52l79.51 131.72a8.37 8.37 0 01-6.22 12.64L378.93 757l-56.33-56.41 34.59-94.08"/><path class="cls-3" d="M431.48 759.13l-48.69-.05-56.33-56.45 5.64-15.33 56.79 59.21 51.52.06-8.93 12.56z"/><path class="cls-4" d="M425.82 760h-40.5a16.78 16.78 0 01-11.94-5l-53.56-53.69 35.24-95.84a2.94 2.94 0 013.77-1.74 2.94 2.94 0 013.53 1.25l77.95 129.43A16.89 16.89 0 01425.82 760zm-99.19-60.19l50.92 51a10.94 10.94 0 007.78 3.24h40.5a11 11 0 009.45-16.69l-76.06-126.17z"/><path class="cls-4" transform="rotate(-33.8 384.028 703.29)" d="M383.45 638.99h1.31v128.75h-1.31z"/><path class="cls-7" transform="rotate(-33.8 385.38 702.388)" d="M384.8 638.08h1.31v128.75h-1.31z"/><path class="cls-7" transform="rotate(-33.8 382.676 704.19)" d="M382.1 639.89h1.31v128.75h-1.31z"/><path class="cls-4" transform="rotate(-33.8 375.855 703.269)" d="M375.28 638.98h1.31v128.75h-1.31z"/><path class="cls-7" transform="rotate(-33.8 377.208 702.367)" d="M376.63 638.07h1.31v128.75h-1.31z"/><path class="cls-7" transform="rotate(-33.8 374.52 704.175)" d="M373.94 639.88h1.31v128.75h-1.31z"/><path class="cls-8" d="M162.85 735.64l-48.34-.05 8.25-71.94a16.1 16.1 0 0116-14.26 16.1 16.1 0 0116 14.3z"/><path class="cls-3" d="M137 651.86a19.2 19.2 0 012.84 5.13c2.28 6 1.95 12.65 1.61 19.07l10.16.34a2.11 2.11 0 001-.13c.67-.33.8-1.2.85-2 .35-5.64.67-11.52-1.51-16.74a9.31 9.31 0 00-1.93-3.08 10.53 10.53 0 00-5.45-2.46 33.76 33.76 0 00-6.86-.66M129.63 677.65a31.72 31.72 0 018.91 16.67 1.75 1.75 0 00.5 1.11 1.69 1.69 0 001 .24l13.63.15c.48 0 2 .66 2.4.46.93-.43.26-1.25.42-2.26a37.81 37.81 0 00-.87-15.26 2.31 2.31 0 00-.76-1.34 2.4 2.4 0 00-1.31-.3l-23.1-.65M133.26 697.52a23.65 23.65 0 015.13 18.09c6.12-1.51 12.58 1.28 18.8.28a1.75 1.75 0 001.23-.58 1.78 1.78 0 00.23-.83c.53-5.11.42-10.35-1.54-15.11-.33-.76 0-2.2-.72-2.66s-3 .15-3.84.15h-18.83"/><path class="cls-3" d="M131.28 715.62c3.43 1.33 5.67 4.73 6.8 8.24s1.37 7.22 2.12 10.83a1.75 1.75 0 00.38.9c.47.47 1.25.3 1.89.1a28.92 28.92 0 018.14-1.23c3.38 0 6.94.52 10-.88a2.26 2.26 0 001.16-.95 2.62 2.62 0 000-1.63q-1.14-6.11-2.37-12.21a2.57 2.57 0 00-2.67-2.53 97.17 97.17 0 00-25.29-1.19"/><path class="cls-4" transform="rotate(-89.94 138.502 715.667)" d="M137.88 692.01h1.31v47.36h-1.31z"/><path class="cls-7" transform="rotate(-89.94 138.506 714.362)" d="M137.88 690.7h1.31v47.36h-1.31z"/><path class="cls-9" transform="rotate(-89.94 138.498 716.973)" d="M137.88 693.32h1.31v47.36h-1.31z"/><path class="cls-4" transform="rotate(-89.94 138.852 696.397)" d="M138.23 675.02h1.31v42.79h-1.31z"/><path class="cls-7" transform="rotate(-89.94 138.857 695.091)" d="M138.23 673.72h1.31v42.79h-1.31z"/><path class="cls-9" transform="rotate(-90 138.41 697.41)" d="M138.23 676.33h1.31v42.79h-1.31z"/><path class="cls-4" d="M157.36 738.58h-37.38a7.84 7.84 0 01-7.78-8.73l7.63-66.49a19 19 0 0137.83 0l7.48 66.51a7.84 7.84 0 01-7.8 8.72zm-18.59-86.25A13.15 13.15 0 00125.69 664l-7.63 66.49a2 2 0 001.72 2.17H157.37a2 2 0 002-2.18l-7.5-66.48a13.15 13.15 0 00-13.1-11.69z"/><path class="cls-8" d="M264.27 122.66l-61.73-.07a9.31 9.31 0 01-9.3-9.32v-9.52a175 175 0 0126.89-93l.94-1.5a12 12 0 0120.3-.14l.52.8a175 175 0 0128.24 95.52v11.39a5.88 5.88 0 01-5.86 5.84z"/><path class="cls-10" d="M269.1 104.1v17.27l-76.91-.09v-16.89c13.15 5.17 27.6 13.21 41.61 11.4 4.57-.6 9.38-1.7 12.7-4.92a18.52 18.52 0 004.31-7.37c7-20.3-5-48-7.16-69.39a76.18 76.18 0 01.72-19.89 175 175 0 0124.73 89.88z"/><path class="cls-8" d="M170.28 336.18l-61.73-.07a9.31 9.31 0 01-9.3-9.32v-9.52a175 175 0 0126.89-93l.94-1.5a12 12 0 0120.3-.14l.52.8a175 175 0 0128.24 95.52v11.35a5.88 5.88 0 01-5.86 5.88zM358.09 337.69l-61.73-.07a9.31 9.31 0 01-9.3-9.32v-9.52a175 175 0 0126.89-93l.94-1.5a12 12 0 0120.3-.14l.52.8a175 175 0 0128.29 95.5v11.39a5.88 5.88 0 01-5.91 5.86z"/><g class="cls-5"><path class="cls-6" d="M387 678.58c-2.64-4.29-4.14-8.09-3.94-8.17s2 3.51 4.65 7.74 5 7.52 4.79 7.66-2.84-2.94-5.5-7.23z"/><ellipse class="cls-6" cx="384.12" cy="680.55" rx=".42" ry="6" transform="rotate(-30.38 384.048 680.465)"/><path class="cls-6" d="M387.16 681.76c-3.88 1.56-7.22 2.22-7.27 2s3.14-1.24 7-2.78 6.84-3 7-2.8-2.89 2.03-6.73 3.58zM383.6 680.71c-3.53 1.63-6.64 2.28-6.69 2.07s2.88-1.22 6.34-2.83 6.12-3.21 6.26-3-2.38 2.12-5.91 3.76z"/></g><path class="cls-3" transform="rotate(-89.94 221.93 473.777)" d="M220.1 404.94h3.72v137.69h-3.72z"/><path class="cls-4" d="M295.5 500.12L151.93 500v-33.39l143.56.16zm-137.68-6l131.81.15v-21.63l-131.8-.15z"/><path class="cls-10" d="M298.93 333.05c-3.83.27-7.7 0-11.53 0v-17.27a175.22 175.22 0 016.36-46.54c3.16-11.41 8.91-35.34 18.79-42.27.39 2 .67 4 .88 5.93a67.53 67.53 0 01-.67 18zM162.32 332.9c3.83.28 7.7 0 11.53 0v-17.27a175.22 175.22 0 00-6.25-46.55c-3.14-11.41-8.83-35.36-18.69-42.32-.39 2-.68 4-.89 5.93a67.53 67.53 0 00.63 18z"/><path class="cls-2" d="M288.06 652.62l.35-315.4 70.32.08-.36 315.6-70.31-.28z"/><path class="cls-8" d="M349.26 336.7l-.36 315.58 6.86.03.36-315.6-6.86-.01z"/><path class="cls-3" d="M291.14 336.64l-.36 315.58 7.06.02.36-315.59-7.06-.01z"/><path class="cls-3" transform="rotate(-89.94 325.814 341.433)" d="M324.73 310.64h2.22v61.58h-2.22z"/><path class="cls-11" d="M323.41 573.16a19.6 19.6 0 01-19.58-19.62l.17-128.7a19.6 19.6 0 0119.62-19.58 19.6 19.6 0 0119.58 19.62l-.2 128.7a19.6 19.6 0 01-19.59 19.58z"/><g class="cls-5"><path class="cls-6" d="M314.48 602.5c-2.13-3.45-3.31-6.54-3.11-6.62s1.72 2.78 3.81 6.19 4 6.06 3.79 6.21-2.38-2.28-4.49-5.78z"/><ellipse class="cls-6" cx="312.19" cy="604.06" rx=".42" ry="4.83" transform="rotate(-30.38 312.115 603.988)"/><path class="cls-6" d="M314.66 605.09c-3.13 1.26-5.83 1.76-5.88 1.54s2.5-1.08 5.57-2.32 5.51-2.39 5.63-2.18-2.18 1.71-5.32 2.96zM311.8 604.24c-2.85 1.33-5.37 1.81-5.42 1.6s2.29-1.06 5.07-2.35 4.94-2.55 5.07-2.35-1.86 1.79-4.72 3.1z"/></g><g class="cls-5"><path class="cls-6" d="M315.72 375.85c-2.13-3.45-3.31-6.54-3.11-6.62s1.72 2.78 3.81 6.19 4 6.06 3.79 6.21-2.38-2.31-4.49-5.78z"/><ellipse class="cls-6" cx="313.44" cy="377.4" rx=".42" ry="4.83" transform="rotate(-30.38 313.378 377.353)"/><path class="cls-6" d="M315.91 378.45c-3.13 1.26-5.83 1.76-5.88 1.54s2.5-1.08 5.57-2.32 5.51-2.39 5.63-2.18-2.23 1.71-5.32 2.96zM313 377.59c-2.85 1.33-5.37 1.81-5.42 1.6s2.29-1.06 5.07-2.35 4.94-2.55 5.07-2.35-1.82 1.79-4.72 3.1z"/></g><path class="cls-4" d="M335.58 351.06a1.14 1.14 0 111.14-1.14 1.14 1.14 0 01-1.14 1.14zm0-1.63a.49.49 0 10.49.49.49.49 0 00-.49-.49z"/><path class="cls-7" d="M335.58 352a2.12 2.12 0 112.13-2.12 2.13 2.13 0 01-2.13 2.12zm0-2.94a.82.82 0 10.82.82.82.82 0 00-.82-.78z"/><path class="cls-4" d="M326.11 351.05a1.14 1.14 0 111.14-1.14 1.14 1.14 0 01-1.14 1.14zm0-1.63a.49.49 0 10.49.49.49.49 0 00-.49-.49z"/><path class="cls-7" d="M326.11 352a2.12 2.12 0 112.13-2.12 2.13 2.13 0 01-2.13 2.12zm0-2.94a.82.82 0 10.82.82.82.82 0 00-.82-.79z"/><path class="cls-4" d="M316.64 351a1.14 1.14 0 111.14-1.14 1.14 1.14 0 01-1.14 1.14zm0-1.63a.49.49 0 10.49.49.49.49 0 00-.49-.45z"/><path class="cls-7" d="M316.63 352a2.12 2.12 0 112.13-2.12 2.13 2.13 0 01-2.13 2.12zm0-2.94a.82.82 0 10.82.82.82.82 0 00-.81-.8z"/><path class="cls-4" d="M334.12 310.23a1.14 1.14 0 111.14-1.14 1.14 1.14 0 01-1.14 1.14zm0-1.63a.49.49 0 10.49.49.49.49 0 00-.49-.49z"/><path class="cls-7" d="M334.12 311.21a2.12 2.12 0 112.13-2.12 2.13 2.13 0 01-2.13 2.12zm0-2.94a.82.82 0 10.82.82.82.82 0 00-.82-.82z"/><path class="cls-4" d="M324.65 310.22a1.14 1.14 0 111.14-1.14 1.14 1.14 0 01-1.14 1.14zm0-1.63a.49.49 0 10.49.49.49.49 0 00-.49-.49z"/><path class="cls-7" d="M324.64 311.2a2.12 2.12 0 112.13-2.12 2.13 2.13 0 01-2.13 2.12zm0-2.94a.82.82 0 10.82.82.82.82 0 00-.81-.82z"/><path class="cls-4" d="M315.17 310.21a1.14 1.14 0 111.14-1.14 1.14 1.14 0 01-1.14 1.14zm0-1.63a.49.49 0 10.49.49.49.49 0 00-.49-.49z"/><path class="cls-7" d="M315.17 311.19a2.12 2.12 0 112.13-2.12 2.13 2.13 0 01-2.13 2.12zm0-2.94a.82.82 0 10.82.82.82.82 0 00-.81-.82z"/><path class="cls-12" d="M339.77 367.59c0-2.32-.09-4.52-.13-6.53s-.07-3.82-.08-5.36c0-3.07.19-5 .76-5.12s1.41 1.71 2.17 4.77a48.24 48.24 0 011 5.43 63.61 63.61 0 01.22 13.49 48.29 48.29 0 01-.8 5.46c-.66 3.08-1.45 4.9-2 4.84s-.82-2-.93-5.1c-.05-1.54-.08-3.35-.1-5.36s-.08-4.2-.11-6.52z"/><ellipse class="cls-12" cx="341.6" cy="392.7" rx="4.9" ry="2.08" transform="rotate(-86.93 341.57 392.701)"/><path class="cls-7" d="M323.57 571.53A17.66 17.66 0 01306 553.87l.14-128.07a17.64 17.64 0 1135.28 0l-.14 128.07a17.66 17.66 0 01-17.71 17.66zm.18-160.4A14.71 14.71 0 00309 425.8l-.14 128.07a14.7 14.7 0 0029.4 0l.14-128.07a14.71 14.71 0 00-14.68-14.72z"/><g class="cls-5"><path class="cls-8" d="M302.01 433.27l-.03 24.35 39.15 46.62.02-24.35-39.14-46.62zM302 469.85v40l39.14 46.61V516.43z"/></g><path class="cls-4" d="M323.38 576.26a22.07 22.07 0 01-22-22.07l.14-128.69a22 22 0 1144.1 0l-.14 128.69a22.07 22.07 0 01-22.1 22.07zm.19-167.89a17.17 17.17 0 00-17.17 17.13l-.14 128.69a17.15 17.15 0 0034.3.08l.14-128.69a17.17 17.17 0 00-17.13-17.21z"/><path class="cls-4" d="M323.75 416.7a1.14 1.14 0 111.14-1.14 1.14 1.14 0 01-1.14 1.14zm0-1.63a.49.49 0 10.49.49.49.49 0 00-.49-.49z"/><path class="cls-7" d="M323.75 417.68a2.12 2.12 0 112.13-2.12 2.13 2.13 0 01-2.13 2.12zm0-2.94a.82.82 0 10.82.82.82.82 0 00-.82-.82z"/><path class="cls-4" d="M323.58 565.65a1.14 1.14 0 111.14-1.14 1.14 1.14 0 01-1.14 1.14zm0-1.63a.49.49 0 10.49.49.49.49 0 00-.49-.51z"/><path class="cls-7" d="M323.58 566.63a2.12 2.12 0 112.13-2.12 2.12 2.12 0 01-2.13 2.12zm0-2.94a.82.82 0 10.82.82.82.82 0 00-.82-.82z"/><path class="cls-2" d="M266.48 653.12l.59-530.13-70.31-.08-.6 530.46 70.32-.25z"/><path class="cls-8" d="M206.24 121.94l-.6 530.43-6.86.02.6-530.45h6.86z"/><path class="cls-3" d="M264.05 122.01l-.6 530.42-5.13.03.6-530.46 5.13.01z"/><path class="cls-11" d="M231.74 190.57a19.6 19.6 0 0119.58 19.62l-.14 128.69a19.6 19.6 0 01-19.62 19.58A19.6 19.6 0 01212 338.84l.14-128.69a19.6 19.6 0 0119.6-19.58z"/><path class="cls-4" transform="rotate(-89.94 233.175 626.281)" d="M232.56 592.33h1.31v67.94h-1.31z"/><path class="cls-7" transform="rotate(-89.94 233.18 624.975)" d="M232.56 591.02h1.31v67.94h-1.31z"/><path class="cls-9" transform="rotate(-89.94 233.176 627.592)" d="M232.56 593.64h1.31v67.94h-1.31z"/><path class="cls-4" transform="rotate(-89.94 233.175 617.141)" d="M232.55 583.18h1.31v67.94h-1.31z"/><path class="cls-7" transform="rotate(-89.94 233.174 615.83)" d="M232.56 581.88h1.31v67.94h-1.31z"/><path class="cls-9" transform="rotate(-89.94 233.176 618.442)" d="M232.55 584.49h1.31v67.94h-1.31z"/><path class="cls-4" transform="rotate(-89.94 322.017 626.39)" d="M321.4 592.43h1.31v67.94h-1.31z"/><path class="cls-7" transform="rotate(-89.94 322.02 625.084)" d="M321.4 591.12h1.31v67.94h-1.31z"/><path class="cls-9" transform="rotate(-89.94 322.017 627.69)" d="M321.4 593.74h1.31v67.94h-1.31z"/><path class="cls-4" transform="rotate(-89.94 322.017 617.24)" d="M321.4 583.28h1.31v67.94h-1.31z"/><path class="cls-7" transform="rotate(-89.94 322.021 615.934)" d="M321.4 581.98h1.31v67.94h-1.31z"/><path class="cls-9" transform="rotate(-89.94 322.012 618.546)" d="M321.4 584.59h1.31v67.94h-1.31z"/><path class="cls-4" transform="rotate(-89.94 322.523 323.286)" d="M321.89 287.19h1.31v72.19h-1.31z"/><path class="cls-7" transform="rotate(-89.94 322.522 321.975)" d="M321.89 285.88h1.31v72.19h-1.31z"/><path class="cls-9" transform="rotate(-89.94 322.519 324.591)" d="M321.89 288.5h1.31v72.19h-1.31z"/><path class="cls-4" transform="rotate(-89.94 322.53 317.402)" d="M321.9 281.31h1.31v72.19h-1.31z"/><path class="cls-7" transform="rotate(-89.94 322.534 316.097)" d="M321.9 280h1.31v72.19h-1.31z"/><path class="cls-9" transform="rotate(-89.94 322.526 318.708)" d="M321.9 282.62h1.31v72.19h-1.31z"/><path class="cls-4" transform="rotate(-89.94 231.648 108.586)" d="M231 72.49h1.31v72.19H231z"/><path class="cls-7" transform="rotate(-89.94 231.642 107.28)" d="M231.01 71.18h1.31v72.19h-1.31z"/><path class="cls-9" transform="rotate(-89.94 231.644 109.891)" d="M231 73.79h1.31v72.19H231z"/><path class="cls-4" transform="rotate(-89.94 231.65 102.708)" d="M231.01 66.61h1.31v72.19h-1.31z"/><path class="cls-7" transform="rotate(-89.94 231.654 101.402)" d="M231.01 65.3h1.31v72.19h-1.31z"/><path class="cls-9" transform="rotate(-89.94 231.646 104.013)" d="M231.01 67.92h1.31v72.19h-1.31z"/><path class="cls-4" transform="rotate(-89.94 137.981 323.067)" d="M137.35 286.98h1.31v72.19h-1.31z"/><path class="cls-7" transform="rotate(-89.94 137.986 321.761)" d="M137.35 285.68h1.31v72.19h-1.31z"/><path class="cls-9" transform="rotate(-89.94 137.977 324.373)" d="M137.34 288.29h1.31v72.19h-1.31z"/><path class="cls-4" transform="rotate(-89.94 137.983 317.189)" d="M137.35 281.1h1.31v72.19h-1.31z"/><path class="cls-7" transform="rotate(-89.94 137.988 315.883)" d="M137.35 279.8h1.31v72.19h-1.31z"/><path class="cls-9" transform="rotate(-89.94 137.989 318.495)" d="M137.35 282.41h1.31v72.19h-1.31z"/><g class="cls-5"><path class="cls-6" d="M239 160.71c2.1-3.4 3.6-6.28 3.83-6.18s-1 3.17-3.12 6.62-4.34 5.92-4.51 5.77 1.68-2.79 3.8-6.21z"/><ellipse class="cls-6" cx="241.95" cy="162.7" rx="4.83" ry=".42" transform="rotate(-59.49 241.928 162.701)"/><path class="cls-6" d="M239.8 163c3.07 1.24 5.63 2.1 5.57 2.33s-2.75-.29-5.88-1.55-5.43-2.77-5.31-3 2.55.97 5.62 2.22zM242.7 162.16c2.77 1.31 5.13 2.13 5.06 2.36s-2.57-.27-5.41-1.61-4.84-2.95-4.71-3.11 2.28 1.07 5.06 2.36z"/></g><path class="cls-4" d="M219.88 136.33a1.14 1.14 0 111.14-1.14 1.14 1.14 0 01-1.14 1.14zm0-1.63a.49.49 0 10.49.49.49.49 0 00-.49-.49z"/><path class="cls-7" d="M219.88 137.31a2.12 2.12 0 112.13-2.12 2.13 2.13 0 01-2.13 2.12zm0-2.94a.82.82 0 10.82.82.82.82 0 00-.82-.82z"/><path class="cls-4" d="M229.35 136.34a1.14 1.14 0 111.14-1.14 1.14 1.14 0 01-1.14 1.14zm0-1.63a.49.49 0 10.49.49.49.49 0 00-.49-.49z"/><path class="cls-7" d="M229.35 137.32a2.12 2.12 0 112.13-2.12 2.13 2.13 0 01-2.13 2.12zm0-2.94a.82.82 0 10.82.82.82.82 0 00-.82-.82z"/><path class="cls-4" d="M238.83 136.35a1.14 1.14 0 111.14-1.14 1.14 1.14 0 01-1.14 1.14zm0-1.63a.49.49 0 10.49.49.49.49 0 00-.49-.49z"/><path class="cls-7" d="M238.82 137.33a2.12 2.12 0 112.13-2.12 2.13 2.13 0 01-2.13 2.12zm0-2.94a.82.82 0 10.82.82.82.82 0 00-.81-.82z"/><path class="cls-4" d="M223.72 95.51a1.14 1.14 0 111.14-1.14 1.14 1.14 0 01-1.14 1.14zm0-1.63a.49.49 0 10.49.49.49.49 0 00-.49-.5z"/><path class="cls-7" d="M223.72 96.49a2.12 2.12 0 112.13-2.12 2.13 2.13 0 01-2.13 2.12zm0-2.94a.82.82 0 10.82.82.82.82 0 00-.82-.82z"/><path class="cls-4" d="M233.19 95.52a1.14 1.14 0 111.14-1.14 1.14 1.14 0 01-1.14 1.14zm0-1.63a.49.49 0 10.49.49.49.49 0 00-.49-.5z"/><path class="cls-7" d="M233.19 96.5a2.12 2.12 0 112.13-2.12 2.13 2.13 0 01-2.13 2.12zm0-2.94a.82.82 0 10.82.82.82.82 0 00-.82-.82z"/><path class="cls-4" d="M242.66 95.53a1.14 1.14 0 111.14-1.14 1.14 1.14 0 01-1.14 1.14zm0-1.63a.49.49 0 10.49.49.49.49 0 00-.48-.49z"/><path class="cls-7" d="M242.66 96.51a2.12 2.12 0 112.13-2.12 2.13 2.13 0 01-2.13 2.12zm0-2.94a.82.82 0 10.82.82.82.82 0 00-.81-.82z"/><path class="cls-4" d="M221.86 643.27a1.14 1.14 0 111.14-1.14 1.14 1.14 0 01-1.14 1.14zm0-1.63a.49.49 0 10.49.49.49.49 0 00-.49-.49z"/><path class="cls-7" d="M221.86 644.25a2.12 2.12 0 112.13-2.12 2.13 2.13 0 01-2.13 2.12zm0-2.94a.82.82 0 10.82.82.82.82 0 00-.82-.82z"/><path class="cls-4" d="M231.33 643.28a1.14 1.14 0 111.14-1.14 1.14 1.14 0 01-1.14 1.14zm0-1.63a.49.49 0 10.49.49.49.49 0 00-.48-.49z"/><path class="cls-7" d="M231.33 644.26a2.12 2.12 0 112.13-2.12 2.13 2.13 0 01-2.13 2.12zm0-2.94a.82.82 0 10.82.82.82.82 0 00-.81-.82z"/><path class="cls-4" d="M240.81 643.29a1.14 1.14 0 111.14-1.14 1.14 1.14 0 01-1.14 1.14zm0-1.63a.49.49 0 10.49.49.49.49 0 00-.49-.49z"/><path class="cls-7" d="M240.8 644.27a2.12 2.12 0 112.13-2.12 2.13 2.13 0 01-2.13 2.12zm0-2.94a.82.82 0 10.82.82.82.82 0 00-.81-.82z"/><path class="cls-12" d="M211.15 158.65a65.53 65.53 0 01.48-6.74 48.28 48.28 0 011-5.43c.76-3.06 1.62-4.86 2.18-4.77s.75 2.06.75 5.13c0 1.54 0 3.35-.08 5.36l-.14 6.53c0 2.32-.07 4.52-.1 6.53s-.06 3.82-.11 5.36c-.11 3.07-.36 5-.94 5.09s-1.35-1.76-2-4.84a48.29 48.29 0 01-.79-5.46 65.54 65.54 0 01-.25-6.76z"/><ellipse class="cls-12" cx="213.47" cy="183.8" rx="2.08" ry="4.9" transform="rotate(-2.95 213.096 183.474)"/><path class="cls-7" d="M231.39 356.82a17.66 17.66 0 01-17.62-17.66l.14-128.07a17.64 17.64 0 0135.28 0L249 339.2a17.66 17.66 0 01-17.61 17.62zm.18-160.4a14.71 14.71 0 00-14.72 14.68l-.14 128.07a14.7 14.7 0 0029.4 0l.14-128.07a14.71 14.71 0 00-14.68-14.72z"/><g class="cls-5"><path class="cls-8" d="M253.27 218.61l-.03 24.36-39.25 46.53.03-24.36 39.25-46.53zM253.23 255.2v40l-39.25 46.52V301.69z"/></g><path class="cls-4" d="M231.57 361.56a22.07 22.07 0 01-22-22.07l.14-128.69a22 22 0 0144.1 0l-.14 128.69a22.07 22.07 0 01-22.1 22.07zm.19-167.89a17.17 17.17 0 00-17.17 17.13l-.14 128.69a17.17 17.17 0 0017.13 17.17 17.17 17.17 0 0017.17-17.13l.14-128.69a17.17 17.17 0 00-17.13-17.17z"/><path class="cls-4" d="M231.57 202a1.14 1.14 0 111.14-1.14 1.14 1.14 0 01-1.14 1.14zm0-1.63a.49.49 0 10.49.49.49.49 0 00-.49-.49z"/><path class="cls-7" d="M231.56 203a2.12 2.12 0 112.13-2.12 2.13 2.13 0 01-2.13 2.12zm0-2.94a.82.82 0 10.82.82.82.82 0 00-.81-.88z"/><path class="cls-4" d="M231.4 350.94a1.14 1.14 0 111.14-1.14 1.14 1.14 0 01-1.14 1.14zm0-1.63a.49.49 0 10.49.49.49.49 0 00-.49-.49z"/><path class="cls-7" d="M231.4 351.92a2.12 2.12 0 112.13-2.12 2.13 2.13 0 01-2.13 2.12zm0-2.94a.82.82 0 10.82.82.82.82 0 00-.82-.8z"/><path class="cls-4" d="M236.28 485.66a4.06 4.06 0 00-.6-.45 7.35 7.35 0 00-1.06-.56 9.21 9.21 0 00-1.36-.46 5.93 5.93 0 00-1.49-.19 3.33 3.33 0 00-2 .49 1.63 1.63 0 00-.65 1.39 1.43 1.43 0 00.25.86 2.14 2.14 0 00.72.6 6 6 0 001.19.47q.72.21 1.66.45a22.94 22.94 0 012.23.71 6 6 0 011.7.95 3.9 3.9 0 011.07 1.36 4.5 4.5 0 01.38 2 4.85 4.85 0 01-.51 2.29 4.26 4.26 0 01-1.37 1.54 5.94 5.94 0 01-2 .86 10 10 0 01-2.35.27 12.61 12.61 0 01-3.73-.57 11.5 11.5 0 01-3.3-1.61l1.44-2.8a4.53 4.53 0 00.77.56 11.61 11.61 0 001.31.68 10.15 10.15 0 001.67.58 7.56 7.56 0 001.89.24q2.69 0 2.69-1.72a1.41 1.41 0 00-.31-.92 2.61 2.61 0 00-.87-.65 8.37 8.37 0 00-1.37-.52l-1.79-.52a15.22 15.22 0 01-2.09-.72 5.48 5.48 0 01-1.47-.92 3.45 3.45 0 01-.88-1.23 4.25 4.25 0 01-.29-1.66 5.2 5.2 0 01.47-2.26 4.57 4.57 0 011.31-1.65 5.93 5.93 0 012-1 8.05 8.05 0 012.38-.32 9.25 9.25 0 013.27.56 12.14 12.14 0 012.59 1.31zM226.4 520.61v-16.75h7.1a4.76 4.76 0 012.14.49 5.53 5.53 0 011.68 1.28 6 6 0 011.11 1.79 5.4 5.4 0 01.4 2 5.82 5.82 0 01-.37 2.08 5.73 5.73 0 01-1.06 1.78 5.23 5.23 0 01-1.65 1.25 4.78 4.78 0 01-2.12.47h-4v5.61zm3.28-8.47h3.78a1.87 1.87 0 001.5-.73 3 3 0 00.6-2 3.27 3.27 0 00-.19-1.14 2.79 2.79 0 00-.5-.86 2 2 0 00-.72-.53 2.11 2.11 0 00-.84-.18h-3.66zM230.37 526.46h2.86l6.35 16.76h-3.33L234.7 539h-5.85l-1.54 4.17H224zm3.74 10.29l-2.31-6.58-2.41 6.58zM224.35 557.31a8.67 8.67 0 01.56-3 8.13 8.13 0 014.22-4.57 8 8 0 013.49-.73 7.62 7.62 0 014 1 6.48 6.48 0 012.51 2.65l-2.5 1.72a4.29 4.29 0 00-.8-1.19 4 4 0 00-1-.77 4.57 4.57 0 00-1.13-.41 5.39 5.39 0 00-1.16-.13 4.39 4.39 0 00-2.14.49 4.69 4.69 0 00-1.51 1.29 5.67 5.67 0 00-.91 1.79 6.78 6.78 0 00-.31 2 6.5 6.5 0 00.35 2.14 5.68 5.68 0 001 1.81 5 5 0 001.56 1.25 4.25 4.25 0 002 .47 5.25 5.25 0 001.18-.14 4.48 4.48 0 001.17-.45 4.42 4.42 0 001-.79 3.65 3.65 0 00.76-1.17l2.66 1.53a5 5 0 01-1.15 1.66 7.36 7.36 0 01-1.68 1.21 8.55 8.55 0 01-2 .75 8.74 8.74 0 01-2.08.26 7.13 7.13 0 01-3.27-.76 8.54 8.54 0 01-2.56-2 9.15 9.15 0 01-1.67-2.76 8.61 8.61 0 01-.59-3.15zM238 585.56v2.85h-11.67v-16.75h11.43v2.85h-8.19v4h7.06v2.64h-7.06v4.36z"/><path class="cls-2" d="M173.48 652.49l.35-315.4-70.31-.08-.36 315.6 70.32-.12z"/><path class="cls-8" d="M112.99 336.44l-.35 315.58-6.86.01.35-315.6 6.86.01z"/><path class="cls-3" d="M171.11 336.5l-.35 315.58-6.18.01.35-315.59h6.18z"/><path class="cls-3" transform="rotate(-89.94 136.375 341.212)" d="M135.28 310.43h2.22v61.58h-2.22z"/><path class="cls-11" d="M138.5 405.06a19.6 19.6 0 0119.58 19.62l-.14 128.69A19.6 19.6 0 01138.31 573a19.6 19.6 0 01-19.58-19.62l.14-128.69a19.6 19.6 0 0119.63-19.63z"/><g class="cls-5"><path class="cls-6" d="M146.46 601.87c2.1-3.4 3.6-6.28 3.83-6.18s-1 3.17-3.12 6.62-4.34 5.9-4.51 5.76 1.71-2.79 3.8-6.2z"/><ellipse class="cls-6" cx="149.43" cy="603.85" rx="4.83" ry=".42" transform="rotate(-59.49 149.4 603.816)"/><path class="cls-6" d="M147.29 604.13c3.07 1.24 5.63 2.1 5.57 2.33s-2.75-.29-5.88-1.55-5.43-2.77-5.31-3 2.55.99 5.62 2.22zM150.18 603.3c2.77 1.31 5.13 2.13 5.06 2.36s-2.57-.27-5.41-1.61-4.84-2.95-4.71-3.11 2.3 1.06 5.06 2.36z"/></g><g class="cls-5"><path class="cls-6" d="M145.73 375.21c2.1-3.4 3.6-6.28 3.83-6.18s-1 3.17-3.12 6.62-4.34 5.92-4.5 5.77 1.7-2.79 3.79-6.21z"/><ellipse class="cls-6" cx="148.71" cy="377.16" rx="4.83" ry=".42" transform="rotate(-59.5 148.683 377.147)"/><path class="cls-6" d="M146.55 377.5c3.07 1.24 5.63 2.1 5.57 2.33s-2.75-.29-5.88-1.55-5.43-2.77-5.31-3 2.55.97 5.62 2.22zM149.46 376.66c2.77 1.31 5.13 2.13 5.06 2.36s-2.57-.27-5.41-1.61-4.84-2.95-4.71-3.11 2.28 1.07 5.06 2.36z"/></g><path class="cls-4" d="M126.62 350.83a1.14 1.14 0 111.14-1.14 1.14 1.14 0 01-1.14 1.14zm0-1.63a.49.49 0 10.49.49.49.49 0 00-.48-.5z"/><path class="cls-7" d="M126.62 351.81a2.12 2.12 0 112.13-2.12 2.13 2.13 0 01-2.13 2.12zm0-2.94a.82.82 0 10.82.82.82.82 0 00-.81-.82z"/><path class="cls-4" d="M136.1 350.84a1.14 1.14 0 111.14-1.14 1.14 1.14 0 01-1.14 1.14zm0-1.63a.49.49 0 10.49.49.49.49 0 00-.49-.5z"/><path class="cls-7" d="M136.09 351.82a2.12 2.12 0 112.13-2.12 2.13 2.13 0 01-2.13 2.12zm0-2.94a.82.82 0 10.82.82.82.82 0 00-.81-.82z"/><path class="cls-4" d="M145.57 350.85a1.14 1.14 0 111.14-1.14 1.14 1.14 0 01-1.14 1.14zm0-1.63a.49.49 0 10.49.49.49.49 0 00-.49-.5z"/><path class="cls-7" d="M145.57 351.83a2.12 2.12 0 112.13-2.12 2.13 2.13 0 01-2.13 2.12zm0-2.94a.82.82 0 10.82.82.82.82 0 00-.82-.82z"/><path class="cls-4" d="M128.19 310a1.14 1.14 0 111.14-1.14 1.14 1.14 0 01-1.14 1.14zm0-1.63a.49.49 0 10.49.49.49.49 0 00-.49-.49z"/><path class="cls-7" d="M128.19 311a2.12 2.12 0 112.13-2.12 2.13 2.13 0 01-2.13 2.12zm0-2.94a.82.82 0 10.82.82.82.82 0 00-.82-.88z"/><path class="cls-4" d="M137.66 310a1.14 1.14 0 111.14-1.14 1.14 1.14 0 01-1.14 1.14zm0-1.63a.49.49 0 10.49.49.49.49 0 00-.49-.49z"/><path class="cls-7" d="M137.66 311a2.12 2.12 0 112.13-2.12 2.13 2.13 0 01-2.13 2.12zm0-2.94a.82.82 0 10.82.82.82.82 0 00-.82-.88z"/><path class="cls-4" d="M147.13 310a1.14 1.14 0 111.14-1.14 1.14 1.14 0 01-1.14 1.14zm0-1.63a.49.49 0 10.49.49.49.49 0 00-.49-.49z"/><path class="cls-7" d="M147.13 311a2.12 2.12 0 112.13-2.12 2.13 2.13 0 01-2.13 2.12zm0-2.94a.82.82 0 10.82.82.82.82 0 00-.81-.82zM138.13 571.32a17.66 17.66 0 01-17.62-17.66l.14-128.07a17.64 17.64 0 1135.28 0l-.14 128.07a17.66 17.66 0 01-17.66 17.66zm.18-160.4a14.71 14.71 0 00-14.71 14.68l-.14 128.07a14.7 14.7 0 1029.4 0l.14-128.04a14.71 14.71 0 00-14.68-14.72z"/><g class="cls-5"><path class="cls-8" d="M160.02 433.11l-.02 24.35-39.25 46.53.03-24.35 39.24-46.53zM160 469.69v40l-39.25 46.52V516.18z"/></g><path class="cls-4" d="M138.32 576.05a22.07 22.07 0 01-22-22.07l.14-128.69a22 22 0 1144.1 0L160.4 554a22.07 22.07 0 01-22.08 22.05zm.19-167.89a17.17 17.17 0 00-17.17 17.13L121.2 554a17.15 17.15 0 1034.3 0l.14-128.69a17.17 17.17 0 00-17.13-17.15z"/><path class="cls-4" d="M138.31 416.49a1.14 1.14 0 111.14-1.14 1.14 1.14 0 01-1.14 1.14zm0-1.63a.49.49 0 10.49.49.49.49 0 00-.49-.49z"/><path class="cls-7" d="M138.31 417.47a2.12 2.12 0 112.13-2.12 2.13 2.13 0 01-2.13 2.12zm0-2.94a.82.82 0 10.82.82.82.82 0 00-.82-.82z"/><path class="cls-4" d="M138.14 565.44a1.14 1.14 0 111.14-1.14 1.14 1.14 0 01-1.14 1.14zm0-1.63a.49.49 0 10.49.49.49.49 0 00-.49-.5z"/><path class="cls-7" d="M138.14 566.42a2.12 2.12 0 112.13-2.12 2.12 2.12 0 01-2.13 2.12zm0-2.94a.82.82 0 10.82.82.82.82 0 00-.82-.82z"/><path class="cls-4" d="M171.26 339.44l-61.73-.07a12.27 12.27 0 01-12.24-12.27v-9.52A177.72 177.72 0 01124.65 223l.94-1.5a15 15 0 0125.26-.18l.52.8a177.51 177.51 0 0128.72 97.12v11.39a8.82 8.82 0 01-8.83 8.81zm-33-119.07h-.08a9.07 9.07 0 00-7.64 4.26l-.94 1.5a171.85 171.85 0 00-26.45 91.46v9.52a6.38 6.38 0 006.37 6.38l61.73.07a2.94 2.94 0 002.94-2.94v-11.38a171.65 171.65 0 00-27.77-93.92l-.52-.8a9.07 9.07 0 00-7.6-4.15z"/><circle class="cls-8" cx="337.86" cy="589.83" r="2.61" transform="rotate(-89.94 337.82 589.827)"/><circle class="cls-8" cx="340.62" cy="599.47" r="4.08" transform="rotate(-90 340.095 599.325)"/><circle class="cls-10" cx="223.16" cy="36.71" r="2.61" transform="rotate(-61.35 223.15 36.714)"/><circle class="cls-10" cx="220.98" cy="46.5" r="4.08" transform="rotate(-61.35 220.966 46.506)"/><circle class="cls-8" cx="123.91" cy="591.23" r="2.61" transform="rotate(-89.94 123.88 591.21)"/><circle class="cls-8" cx="121.12" cy="600.86" r="4.08" transform="rotate(-90 120.715 600.585)"/><circle class="cls-8" cx="132.48" cy="433.47" r="2.61" transform="rotate(-90 132.165 433.305)"/><circle class="cls-8" cx="129.7" cy="443.1" r="4.08" transform="rotate(-90 129.375 442.925)"/><path class="cls-8" d="M254.63 735.75l-48.34-.05 8.25-71.94a16.1 16.1 0 0116-14.26 16.1 16.1 0 0116 14.3z"/><path class="cls-3" d="M228.77 652a19.2 19.2 0 012.84 5.13c2.28 6 1.95 12.65 1.61 19.07l10.16.34a2.11 2.11 0 001-.13c.67-.33.8-1.2.85-2 .35-5.64.67-11.52-1.51-16.74a9.31 9.31 0 00-1.93-3.08 10.53 10.53 0 00-5.45-2.46 33.76 33.76 0 00-6.86-.66M221.41 677.76a31.72 31.72 0 018.91 16.67 1.75 1.75 0 00.5 1.11 1.69 1.69 0 001 .24l13.63.15c.48 0 2 .66 2.4.46.93-.43.26-1.25.42-2.26a37.81 37.81 0 00-.87-15.26 2.31 2.31 0 00-.76-1.34 2.4 2.4 0 00-1.31-.3l-23.1-.65M225 697.62a23.65 23.65 0 015.13 18.09c6.12-1.51 12.58 1.28 18.8.28a1.75 1.75 0 001.23-.58 1.78 1.78 0 00.23-.83c.53-5.11.42-10.35-1.54-15.11-.33-.76 0-2.2-.72-2.66s-3 .15-3.84.15H225.5"/><path class="cls-3" d="M223.06 715.72c3.43 1.33 5.67 4.73 6.8 8.24s1.37 7.22 2.12 10.83a1.75 1.75 0 00.38.9c.47.47 1.25.3 1.89.1a28.92 28.92 0 018.14-1.23c3.38 0 6.94.52 10-.88a2.26 2.26 0 001.16-.95 2.62 2.62 0 000-1.63q-1.14-6.11-2.37-12.21a2.57 2.57 0 00-2.67-2.53 97.17 97.17 0 00-25.29-1.19"/><path class="cls-4" transform="rotate(-89.94 230.285 715.774)" d="M229.67 692.11h1.31v47.36h-1.31z"/><path class="cls-7" transform="rotate(-89.94 230.285 714.464)" d="M229.67 690.81h1.31v47.36h-1.31z"/><path class="cls-9" transform="rotate(-89.94 230.28 717.08)" d="M229.67 693.42h1.31v47.36h-1.31z"/><path class="cls-4" transform="rotate(-89.94 230.635 696.504)" d="M230.02 675.13h1.31v42.79h-1.31z"/><path class="cls-7" transform="rotate(-89.94 230.635 695.193)" d="M230.02 673.82h1.31v42.79h-1.31z"/><path class="cls-9" transform="rotate(-89.94 230.631 697.81)" d="M230.01 676.43h1.31v42.79h-1.31z"/><path class="cls-4" d="M249.14 738.68h-37.38a7.84 7.84 0 01-7.76-8.78l7.63-66.49a13.49 13.49 0 016.73-10.6c3.09-1.78 7.19-2.68 12.2-2.67s9.11.92 12.19 2.7a13.49 13.49 0 016.71 10.61l7.47 66.55a7.84 7.84 0 01-7.8 8.72zM230.55 656c-10.9 0-12.69 4.6-13.07 8.06l-7.63 66.49a2 2 0 001.72 2.17H249.17a2 2 0 002-2.18l-7.48-66.51c-.85-7.24-7.88-8.09-13.1-8.09z"/><path class="cls-8" d="M347.4 735.85l-48.34-.05 8.25-71.94a16.1 16.1 0 0116-14.26 16.1 16.1 0 0116 14.3z"/><path class="cls-3" d="M321.53 652.07a19.2 19.2 0 012.84 5.13c2.28 6 1.95 12.65 1.61 19.07l10.16.34a2.11 2.11 0 001-.13c.67-.33.8-1.2.85-2 .35-5.64.67-11.52-1.51-16.74a9.31 9.31 0 00-1.93-3.08 10.53 10.53 0 00-5.45-2.46 33.76 33.76 0 00-6.86-.66M314.17 677.86a31.72 31.72 0 018.91 16.67 1.75 1.75 0 00.5 1.11 1.69 1.69 0 001 .24l13.63.15c.48 0 2 .66 2.4.46.93-.43.26-1.25.42-2.26a37.81 37.81 0 00-.83-15.23 2.31 2.31 0 00-.76-1.34 2.4 2.4 0 00-1.31-.3l-23.1-.65M317.81 697.72a23.65 23.65 0 015.13 18.09c6.12-1.51 12.58 1.28 18.8.28a1.75 1.75 0 001.23-.58 1.78 1.78 0 00.23-.83c.53-5.11.42-10.35-1.54-15.11-.33-.76 0-2.2-.72-2.66s-3 .15-3.84.15h-18.83"/><path class="cls-3" d="M315.83 715.83c3.43 1.33 5.67 4.73 6.8 8.24s1.37 7.22 2.12 10.83a1.75 1.75 0 00.38.9c.47.47 1.25.3 1.89.1a28.92 28.92 0 018.14-1.23c3.38 0 6.94.52 10-.88a2.26 2.26 0 001.16-.95 2.62 2.62 0 000-1.63q-1.07-6.12-2.32-12.21a2.57 2.57 0 00-2.67-2.53 97.17 97.17 0 00-25.29-1.19"/><path class="cls-4" transform="rotate(-89.94 323.044 715.886)" d="M322.43 692.22h1.31v47.36h-1.31z"/><path class="cls-7" transform="rotate(-89.94 323.043 714.575)" d="M322.43 690.91h1.31v47.36h-1.31z"/><path class="cls-9" transform="rotate(-89.94 323.045 717.187)" d="M322.43 693.52h1.31v47.36h-1.31z"/><path class="cls-4" transform="rotate(-89.94 323.394 696.616)" d="M322.78 675.23h1.31v42.79h-1.31z"/><path class="cls-7" transform="rotate(-89.94 323.393 695.305)" d="M322.78 673.93h1.31v42.79h-1.31z"/><path class="cls-9" transform="rotate(-89.94 323.39 697.921)" d="M322.78 676.54h1.31v42.79h-1.31z"/><path class="cls-4" d="M341.91 738.78h-37.38a7.84 7.84 0 01-7.78-8.73l7.63-66.49a13.49 13.49 0 016.73-10.6c3.09-1.78 7.19-2.68 12.2-2.67h2.94v.42a22.19 22.19 0 019.2 2.4 12.93 12.93 0 016.77 10.48l7.48 66.51a7.84 7.84 0 01-7.8 8.72zm-21.53-82.54c-8.29.75-9.78 4.81-10.13 7.94l-7.63 66.49a2 2 0 001.72 2.17H341.94a2 2 0 002-2.18l-7.48-66.51c-.41-3.61-2.26-7.75-13.06-7.77h-2.94z"/><rect x="203.86" y="411.21" width="55.85" height="39.2" rx="6.49" ry="6.49" transform="rotate(-89.94 231.762 430.8)" fill="#2974b7"/><circle class="cls-8" cx="224.61" cy="425.08" r="1.31" transform="rotate(-89.94 224.58 425.075)"/><circle cx="225.92" cy="413.98" r="1.31" transform="rotate(-89.94 225.9 413.974)" fill="#ef7752"/><circle class="cls-8" cx="242.25" cy="418.24" r="1.31" transform="rotate(-89.94 242.226 418.232)"/><circle class="cls-8" cx="219.68" cy="447.94" r="1.31" transform="rotate(-89.94 219.654 447.935)"/><circle class="cls-8" cx="225.89" cy="447.62" r="2.94" transform="rotate(-90 225.505 447.495)"/><circle class="cls-8" cx="231.29" cy="432.44" r="2.12" transform="rotate(-89.94 231.267 432.436)"/><path class="cls-4" d="M352.78 655.83l-59.12-.23c-4.84 0-8.49-2.72-8.49-6.27l.35-315.14 76.19.09-.35 315.31a5.36 5.36 0 01-1.65 3.78 10 10 0 01-6.93 2.46zM291 649a4.52 4.52 0 002.63.7l59.12.23a4.48 4.48 0 002.65-.69l.35-309.12-64.42-.07z"/><path class="cls-4" transform="rotate(-89.94 139.11 625.195)" d="M138.49 591.24h1.31v67.94h-1.31z"/><path class="cls-7" transform="rotate(-89.94 139.114 623.889)" d="M138.49 589.94h1.31v67.94h-1.31z"/><path class="cls-9" transform="rotate(-89.94 139.106 626.5)" d="M138.49 592.55h1.31v67.94h-1.31z"/><path class="cls-4" transform="rotate(-89.94 139.11 616.045)" d="M138.49 582.1h1.31v67.94h-1.31z"/><path class="cls-7" transform="rotate(-89.94 139.11 614.744)" d="M138.49 580.79h1.31v67.94h-1.31z"/><path class="cls-9" transform="rotate(-89.94 139.111 617.356)" d="M138.48 583.4h1.31v67.94h-1.31z"/><path class="cls-4" d="M108.75 655.56a9.87 9.87 0 01-6.88-2.49 5.36 5.36 0 01-1.65-3.78l.36-315.29 76.19.09-.35 315.14c0 3.56-3.66 6.25-8.5 6.26l-59.12.1zm-2.64-6.56a4.52 4.52 0 002.65.7l59.12-.1a4.46 4.46 0 002.63-.69l.35-309-64.43-.07zM352.7 339.65l-58.47-.07a12.09 12.09 0 01-12.07-12.1v-8.12a177.51 177.51 0 0129-97.06l.52-.8a15 15 0 0125.26.24l.94 1.5A177.72 177.72 0 01365 317.89v9.52a12.27 12.27 0 01-12.3 12.24zm-28.5-119.07a9.07 9.07 0 00-7.64 4.13l-.52.8a171.65 171.65 0 00-28 93.85v8.12a6.21 6.21 0 006.2 6.21l58.47.07a6.38 6.38 0 006.38-6.37v-9.52a171.85 171.85 0 00-26.24-91.52l-.94-1.5a9.07 9.07 0 00-7.65-4.27zM263.25 124.95l-62.64-.07a10.09 10.09 0 01-10.06-10.08v-11.7a177.72 177.72 0 0127.36-94.6l.94-1.5a15 15 0 0125.26-.18l.52.8a177.51 177.51 0 0128.72 97.12v10.13a10.09 10.09 0 01-10.1 10.08zM231.53 5.88h-.08a9.07 9.07 0 00-7.64 4.26l-.94 1.5a171.85 171.85 0 00-26.45 91.46v11.7a4.2 4.2 0 004.19 4.2l62.65.07a4.2 4.2 0 004.2-4.19v-10.13a171.65 171.65 0 00-27.77-93.92l-.52-.8a9.07 9.07 0 00-7.64-4.15z"/><path class="cls-3" transform="rotate(-89.94 231.022 126.73)" d="M229.92 95.94h2.22v61.58h-2.22z"/><path class="cls-4" d="M201.75 655.8a8.53 8.53 0 01-8.52-8.54l.59-527.78 76.19.09-.59 527.51a8.55 8.55 0 01-8.5 8.52l-59.12.21zm-2.05-530.43l-.59 521.9a2.65 2.65 0 002.65 2.65l59.12-.21a2.66 2.66 0 002.64-2.65l.59-521.63z"/><rect class="cls-8" x="219.08" y="620.61" width="24.17" height="81.26" rx="3.92" ry="3.92" transform="rotate(-89.94 231.132 661.23)"/><path class="cls-2" d="M271.85 655.41v13.72a3.92 3.92 0 01-3.92 3.92l-73.45-.05a3.92 3.92 0 01-3.92-3.92v-1.85a281.68 281.68 0 0057.07-3.2c8.46-1.39 17.58-3.64 24.22-8.62z"/><path class="cls-4" d="M267.32 677.7l-73.42-.08a6.86 6.86 0 01-6.85-6.87v-16.33a6.86 6.86 0 016.87-6.85l73.42.08a6.86 6.86 0 016.85 6.87v16.33a6.86 6.86 0 01-6.87 6.85zm-73.4-24.25a1 1 0 00-1 1v16.33a1 1 0 001 1l73.42.08a1 1 0 001-1v-16.33a1 1 0 00-1-1z"/><path class="cls-4" d="M221.15 663.77a1.14 1.14 0 111.14-1.14 1.14 1.14 0 01-1.14 1.14zm0-1.63a.49.49 0 10.49.49.49.49 0 00-.49-.5z"/><path class="cls-7" d="M221.14 664.75a2.12 2.12 0 112.13-2.12 2.13 2.13 0 01-2.13 2.12zm0-2.94a.82.82 0 10.82.82.82.82 0 00-.81-.82z"/><path class="cls-4" d="M230.62 663.78a1.14 1.14 0 111.14-1.14 1.14 1.14 0 01-1.14 1.14zm0-1.63a.49.49 0 10.49.49.49.49 0 00-.49-.5z"/><path class="cls-7" d="M230.62 664.76a2.12 2.12 0 112.13-2.12 2.13 2.13 0 01-2.13 2.12zm0-2.94a.82.82 0 10.82.82.82.82 0 00-.82-.82z"/><path class="cls-4" d="M240.09 663.79a1.14 1.14 0 111.14-1.14 1.14 1.14 0 01-1.14 1.14zm0-1.63a.49.49 0 10.49.49.49.49 0 00-.49-.5z"/><path class="cls-7" d="M240.09 664.77a2.12 2.12 0 112.13-2.12 2.13 2.13 0 01-2.13 2.12zm0-2.94a.82.82 0 10.82.82.82.82 0 00-.82-.82z"/><path class="cls-4" transform="rotate(-89.94 253.795 662.24)" d="M243.05 661.6h21.56v1.31h-21.56z"/><path class="cls-7" transform="rotate(-89.94 255.1 662.233)" d="M244.36 661.6h21.56v1.31h-21.56z"/><path class="cls-7" transform="rotate(-89.94 252.489 662.235)" d="M241.74 661.6h21.56v1.31h-21.56z"/><path class="cls-4" transform="rotate(-89.94 258.692 662.242)" d="M247.95 661.6h21.56v1.31h-21.56z"/><path class="cls-7" transform="rotate(-89.94 260.003 662.24)" d="M249.26 661.61h21.56v1.31h-21.56z"/><path class="cls-7" transform="rotate(-89.94 257.386 662.237)" d="M246.64 661.6h21.56v1.31h-21.56z"/><rect class="cls-8" x="311.52" y="620.72" width="24.17" height="81.26" rx="3.92" ry="3.92" transform="rotate(-89.94 323.566 661.337)"/><path class="cls-2" d="M364.28 655.51v13.72a3.92 3.92 0 01-3.92 3.92l-73.42-.08a3.92 3.92 0 01-3.92-3.92v-1.85a281.68 281.68 0 0057.07-3.2c8.44-1.35 17.56-3.61 24.19-8.59z"/><path class="cls-4" d="M359.75 677.8l-73.42-.08a6.86 6.86 0 01-6.85-6.87v-16.33a6.86 6.86 0 016.87-6.85l73.42.08a6.86 6.86 0 016.85 6.87v16.33a6.86 6.86 0 01-6.87 6.85zm-73.4-24.25a1 1 0 00-1 1v16.33a1 1 0 001 1l73.42.08a1 1 0 001-1v-16.33a1 1 0 00-1-1z"/><path class="cls-4" d="M313.58 663.87a1.14 1.14 0 111.14-1.14 1.14 1.14 0 01-1.14 1.14zm0-1.63a.49.49 0 10.49.49.49.49 0 00-.49-.49z"/><path class="cls-7" d="M313.58 664.85a2.12 2.12 0 112.13-2.12 2.13 2.13 0 01-2.13 2.12zm0-2.94a.82.82 0 10.82.82.82.82 0 00-.82-.82z"/><path class="cls-4" d="M323.06 663.88a1.14 1.14 0 111.14-1.14 1.14 1.14 0 01-1.14 1.14zm0-1.63a.49.49 0 10.49.49.49.49 0 00-.49-.49z"/><path class="cls-7" d="M323.05 664.86a2.12 2.12 0 112.13-2.12 2.13 2.13 0 01-2.13 2.12zm0-2.94a.82.82 0 10.82.82.82.82 0 00-.81-.82z"/><path class="cls-4" d="M332.53 663.89a1.14 1.14 0 111.14-1.14 1.14 1.14 0 01-1.14 1.14zm0-1.63a.49.49 0 10.49.49.49.49 0 00-.49-.49z"/><path class="cls-7" d="M332.53 664.87a2.12 2.12 0 112.13-2.12 2.13 2.13 0 01-2.13 2.12zm0-2.94a.82.82 0 10.82.82.82.82 0 00-.82-.82z"/><path class="cls-4" transform="rotate(-89.94 346.228 662.346)" d="M335.49 661.7h21.56v1.31h-21.56z"/><path class="cls-7" transform="rotate(-89.94 347.539 662.345)" d="M336.8 661.7h21.56v1.31H336.8z"/><path class="cls-7" transform="rotate(-89.94 344.922 662.341)" d="M334.18 661.7h21.56v1.31h-21.56z"/><path class="cls-4" transform="rotate(-89.94 351.126 662.348)" d="M340.39 661.71h21.56v1.31h-21.56z"/><path class="cls-7" transform="rotate(-89.94 352.431 662.353)" d="M341.69 661.71h21.56v1.31h-21.56z"/><path class="cls-7" transform="rotate(-89.94 349.82 662.344)" d="M339.08 661.71h21.56v1.31h-21.56z"/><rect class="cls-8" x="126.31" y="620.51" width="24.17" height="81.26" rx="3.92" ry="3.92" transform="rotate(-89.94 138.368 661.124)"/><path class="cls-2" d="M179.08 655.31v13.72a3.92 3.92 0 01-3.92 3.92l-73.42-.08a3.92 3.92 0 01-3.92-3.92v-1.85a281.68 281.68 0 0057.07-3.2c8.44-1.36 17.56-3.61 24.19-8.59z"/><path class="cls-4" d="M174.55 677.6l-73.42-.08a6.86 6.86 0 01-6.85-6.87v-16.33a6.86 6.86 0 016.87-6.85l73.42.08a6.86 6.86 0 016.85 6.87v16.33a6.86 6.86 0 01-6.87 6.85zm-73.4-24.25a1 1 0 00-1 1v16.33a1 1 0 001 1l73.42.08a1 1 0 001-1v-16.33a1 1 0 00-1-1z"/><path class="cls-4" d="M128.38 663.66a1.14 1.14 0 111.14-1.14 1.14 1.14 0 01-1.14 1.14zm0-1.63a.49.49 0 10.49.49.49.49 0 00-.49-.52z"/><path class="cls-7" d="M128.38 664.64a2.12 2.12 0 112.13-2.12 2.13 2.13 0 01-2.13 2.12zm0-2.94a.82.82 0 10.82.82.82.82 0 00-.82-.82z"/><path class="cls-4" d="M137.85 663.67a1.14 1.14 0 111.14-1.14 1.14 1.14 0 01-1.14 1.14zm0-1.63a.49.49 0 10.49.49.49.49 0 00-.48-.53z"/><path class="cls-7" d="M137.85 664.65a2.12 2.12 0 112.13-2.12 2.13 2.13 0 01-2.13 2.12zm0-2.94a.82.82 0 10.82.82.82.82 0 00-.81-.82z"/><path class="cls-4" d="M147.33 663.68a1.14 1.14 0 111.14-1.14 1.14 1.14 0 01-1.14 1.14zm0-1.63a.49.49 0 10.49.49.49.49 0 00-.49-.49z"/><path class="cls-7" d="M147.32 664.66a2.12 2.12 0 112.13-2.12 2.13 2.13 0 01-2.13 2.12zm0-2.94a.82.82 0 10.82.82.82.82 0 00-.81-.82z"/><path class="cls-4" transform="rotate(-89.94 161.036 662.128)" d="M150.29 661.49h21.56v1.31h-21.56z"/><path class="cls-7" transform="rotate(-89.94 162.342 662.132)" d="M151.59 661.5h21.56v1.31h-21.56z"/><path class="cls-7" transform="rotate(-89.94 159.725 662.128)" d="M148.98 661.49h21.56v1.31h-21.56z"/><path class="cls-4" transform="rotate(-89.94 165.933 662.13)" d="M155.19 661.5h21.56v1.31h-21.56z"/><path class="cls-7" transform="rotate(-89.94 167.24 662.134)" d="M156.49 661.5h21.56v1.31h-21.56z"/><path class="cls-7" transform="rotate(-89.94 164.628 662.136)" d="M153.88 661.5h21.56v1.31h-21.56z"/></g></g></g></g></svg>